<?xml version="1.0" encoding="utf-8"?>
<svg viewBox="0 0 512 512" xmlns="http://www.w3.org/2000/svg">
  <path opacity="1.000000" stroke="none" d=" M247.000000,1.000001 C335.628632,1.000000 424.257233,1.000000 512.942932,1.000000 C512.942932,171.555389 512.942932,342.110779 512.942932,513.000000 C435.311646,513.000000 357.622803,513.000000 279.177277,512.695679 C281.550903,510.157990 285.069214,508.313568 287.754669,505.634369 C351.106384,442.430389 414.360901,379.128967 477.655914,315.868103 C485.719025,307.809357 486.171356,298.047485 484.210052,287.723206 C482.319305,277.770264 474.091003,272.170288 467.808807,265.648041 C445.501251,242.488144 422.514618,219.981720 399.737396,197.275742 C397.613098,195.158112 396.740265,193.569748 397.783142,190.094772 C401.750153,176.876114 404.852051,163.400742 408.503662,150.083389 C410.597534,142.447098 412.311829,134.758392 410.378784,126.946495 C407.389862,114.867790 399.613953,107.275894 387.554871,103.989365 C352.244934,94.366158 316.946991,84.698425 281.678528,74.924774 C280.405731,74.572060 278.855225,73.095917 278.510742,71.846504 C274.881653,58.684158 271.233002,45.518234 268.070404,32.238823 C265.063568,19.613337 260.925781,8.053129 247.460648,2.851737 C247.119553,2.719986 247.145325,1.638534 247.000000,1.000001 z" style="fill: rgba(0, 0, 0, 0);"/>
  <path opacity="1.000000" stroke="none" d=" M257.000000,513.000000 C171.704056,513.000000 86.408104,513.000000 1.056076,513.000000 C1.056076,342.445496 1.056076,171.890976 1.056076,1.000000 C75.021675,1.000000 149.043854,1.000000 223.830292,1.342627 C224.107788,2.109901 223.685059,2.775967 223.125061,2.924513 C197.043671,9.843046 170.951019,16.719128 144.858185,23.594538 C113.951294,31.738447 83.029816,39.827534 52.142269,48.044170 C40.640545,51.103832 27.200008,63.696342 29.033051,77.503532 C29.926229,84.231308 30.626574,91.055397 32.346806,97.590401 C39.703667,125.538406 47.499779,153.370438 54.960087,181.291672 C62.588737,209.842972 70.029671,238.444519 77.520164,267.032623 C83.383240,289.409576 89.092590,311.827454 95.089691,334.168274 C97.120094,341.732086 98.985130,349.578827 104.915489,355.293304 C107.267426,357.559570 108.383102,360.141174 109.777107,362.971802 C112.511185,368.523529 115.879707,374.109863 120.202454,378.477631 C157.012802,415.671600 193.984787,452.708008 231.187836,489.509064 C239.176865,497.411743 248.304840,504.162018 256.867371,511.490753 C257.141418,511.725342 256.965942,512.485107 257.000000,513.000000 z" style="fill: rgba(0, 0, 0, 0);"/>
  <path fill="#FFFFFF" opacity="1.000000" stroke="none" d=" M257.468567,513.000000 C256.965942,512.485107 257.141418,511.725342 256.867371,511.490753 C248.304840,504.162018 239.176865,497.411743 231.187836,489.509064 C193.984787,452.708008 157.012802,415.671600 120.202454,378.477631 C115.879707,374.109863 112.511185,368.523529 109.777107,362.971802 C108.383102,360.141174 107.267426,357.559570 104.915489,355.293304 C98.985130,349.578827 97.120094,341.732086 95.089691,334.168274 C89.092590,311.827454 83.383240,289.409576 77.520164,267.032623 C70.029671,238.444519 62.588737,209.842972 54.960087,181.291672 C47.499779,153.370438 39.703667,125.538406 32.346806,97.590401 C30.626574,91.055397 29.926229,84.231308 29.033051,77.503532 C27.200008,63.696342 40.640545,51.103832 52.142269,48.044170 C83.029816,39.827534 113.951294,31.738447 144.858185,23.594538 C170.951019,16.719128 197.043671,9.843046 223.125061,2.924513 C223.685059,2.775967 224.107788,2.109901 224.297272,1.342627 C231.354248,1.000000 238.708496,1.000000 246.531372,1.000001 C247.145325,1.638534 247.119553,2.719986 247.460648,2.851737 C260.925781,8.053129 265.063568,19.613337 268.070404,32.238823 C271.233002,45.518234 274.881653,58.684158 278.510742,71.846504 C278.855225,73.095917 280.405731,74.572060 281.678528,74.924774 C316.946991,84.698425 352.244934,94.366158 387.554871,103.989365 C399.613953,107.275894 407.389862,114.867790 410.378784,126.946495 C412.311829,134.758392 410.597534,142.447098 408.503662,150.083389 C404.852051,163.400742 401.750153,176.876114 397.783142,190.094772 C396.740265,193.569748 397.613098,195.158112 399.737396,197.275742 C422.514618,219.981720 445.501251,242.488144 467.808807,265.648041 C474.091003,272.170288 482.319305,277.770264 484.210052,287.723206 C486.171356,298.047485 485.719025,307.809357 477.655914,315.868103 C414.360901,379.128967 351.106384,442.430389 287.754669,505.634369 C285.069214,508.313568 281.550903,510.157990 278.710297,512.695679 C271.979034,513.000000 264.958099,513.000000 257.468567,513.000000 M268.002625,93.451378 C262.231812,71.380730 256.551056,49.285927 250.643753,27.251869 C248.423965,18.972103 239.714386,13.287304 232.636414,15.156089 C211.209793,20.813345 189.803421,26.547401 168.388779,32.250076 C132.387054,41.837261 96.366013,51.352867 60.398788,61.067715 C52.964230,63.075809 46.478725,66.368362 43.595974,74.667587 C42.005795,79.245590 44.757011,82.021980 45.806889,85.628120 C48.724293,95.648926 51.288631,105.772888 53.967064,115.862831 C62.620361,148.460739 71.326828,181.044724 79.892265,213.665726 C90.661507,254.679703 101.230278,295.746521 112.085075,336.737671 C114.147522,344.526154 122.501411,351.238007 132.574936,348.118713 C144.993271,344.273376 157.688629,341.321167 170.268921,338.000702 C189.840057,332.835083 209.424393,327.719238 228.986191,322.518646 C254.589020,315.712067 280.192383,308.906311 305.760315,301.970276 C315.828125,299.239136 321.617035,292.030945 318.061493,281.408112 C316.025726,275.325928 314.647003,269.022644 313.002014,262.811066 C307.656708,242.626633 302.342407,222.433960 296.983490,202.253143 C291.007172,179.747467 285.014496,157.246063 278.991180,134.752899 C275.377533,121.258118 271.691711,107.782639 268.002625,93.451378 M354.500031,418.000031 C391.148804,381.354919 427.923187,344.833984 464.359192,307.978546 C473.626221,298.604889 473.146820,293.134644 464.911133,284.662720 C442.032623,261.127930 418.607788,238.123917 395.352417,214.956772 C394.359283,213.967438 392.903534,213.442520 391.508484,212.608719 C391.029572,214.607071 390.759247,215.870087 390.423431,217.115463 C386.620605,231.219208 382.793915,245.316528 379.000641,259.422852 C372.495453,283.614136 366.062164,307.824890 359.500000,332.000671 C353.404022,354.458923 347.071228,376.853302 341.062988,399.334717 C338.591583,408.582214 332.765076,414.484558 324.190613,417.995300 C314.564911,421.936401 305.083008,419.889038 295.575928,417.234863 C275.941223,411.753235 256.274170,406.386810 236.608643,401.016144 C211.370529,394.123627 186.129868,387.239990 160.870041,380.427673 C154.170868,378.620941 147.397369,377.089722 140.658005,375.432007 C140.328918,376.025146 139.999832,376.618286 139.670761,377.211426 C140.982712,378.178497 142.444427,378.995605 143.584869,380.134430 C180.375046,416.871674 217.134613,453.639557 253.897812,490.403809 C263.900665,500.406891 272.037292,500.500183 282.248199,490.268219 C306.143494,466.323578 330.080139,442.420135 354.500031,418.000031 M367.000122,243.495026 C370.999420,228.780426 375.034546,214.075455 378.989258,199.348877 C384.360504,179.347397 389.488098,159.278320 395.080261,139.339233 C398.051208,128.746323 393.250885,121.856590 383.982178,119.173630 C357.164856,111.410980 330.151031,104.324570 303.190460,97.061325 C297.022339,95.399612 290.758240,94.094109 284.163483,92.536118 C284.821960,94.988739 285.270782,96.661903 285.720459,98.334831 C292.138031,122.209816 298.608551,146.070724 304.960663,169.963120 C313.953705,203.789108 322.892944,237.629547 331.776398,271.484497 C333.726440,278.916077 335.292725,286.465515 333.329681,294.164764 C330.244446,306.265350 322.114410,313.622589 310.459198,316.925415 C294.705566,321.389618 278.797638,325.307373 262.969635,329.511292 C239.854080,335.650787 216.748535,341.828033 193.642914,348.004913 C178.516846,352.048615 163.398193,356.120117 147.028366,360.514069 C152.796936,362.012939 157.303284,363.115784 161.771423,364.356201 C185.270264,370.879791 208.740540,377.507050 232.257126,383.965820 C257.475006,390.891785 282.753021,397.599304 307.959473,404.566101 C313.943359,406.219940 324.154083,403.118744 326.157074,394.870667 C329.902649,379.446716 334.442505,364.216949 338.559021,348.881439 C344.094086,328.261322 349.472809,307.599091 355.049561,286.990356 C358.905060,272.742584 362.981842,258.554688 367.000122,243.495026 z"/>
  <path opacity="1.000000" stroke="none" d=" M268.020447,93.874931 C271.691711,107.782639 275.377533,121.258118 278.991180,134.752899 C285.014496,157.246063 291.007172,179.747467 296.983490,202.253143 C302.342407,222.433960 307.656708,242.626633 313.002014,262.811066 C314.647003,269.022644 316.025726,275.325928 318.061493,281.408112 C321.617035,292.030945 315.828125,299.239136 305.760315,301.970276 C280.192383,308.906311 254.589020,315.712067 228.986191,322.518646 C209.424393,327.719238 189.840057,332.835083 170.268921,338.000702 C157.688629,341.321167 144.993271,344.273376 132.574936,348.118713 C122.501411,351.238007 114.147522,344.526154 112.085075,336.737671 C101.230278,295.746521 90.661507,254.679703 79.892265,213.665726 C71.326828,181.044724 62.620361,148.460739 53.967064,115.862831 C51.288631,105.772888 48.724293,95.648926 45.806889,85.628120 C44.757011,82.021980 42.005795,79.245590 43.595974,74.667587 C46.478725,66.368362 52.964230,63.075809 60.398788,61.067715 C96.366013,51.352867 132.387054,41.837261 168.388779,32.250076 C189.803421,26.547401 211.209793,20.813345 232.636414,15.156089 C239.714386,13.287304 248.423965,18.972103 250.643753,27.251869 C256.551056,49.285927 262.231812,71.380730 268.020447,93.874931 z" style="fill: rgba(0, 0, 0, 0);"/>
  <path opacity="1.000000" stroke="none" d=" M354.250000,418.250000 C330.080139,442.420135 306.143494,466.323578 282.248199,490.268219 C272.037292,500.500183 263.900665,500.406891 253.897812,490.403809 C217.134613,453.639557 180.375046,416.871674 143.584869,380.134430 C142.444427,378.995605 140.982712,378.178497 139.670761,377.211426 C139.999832,376.618286 140.328918,376.025146 140.658005,375.432007 C147.397369,377.089722 154.170868,378.620941 160.870041,380.427673 C186.129868,387.239990 211.370529,394.123627 236.608643,401.016144 C256.274170,406.386810 275.941223,411.753235 295.575928,417.234863 C305.083008,419.889038 314.564911,421.936401 324.190613,417.995300 C332.765076,414.484558 338.591583,408.582214 341.062988,399.334717 C347.071228,376.853302 353.404022,354.458923 359.500000,332.000671 C366.062164,307.824890 372.495453,283.614136 379.000641,259.422852 C382.793915,245.316528 386.620605,231.219208 390.423431,217.115463 C390.759247,215.870087 391.029572,214.607071 391.508484,212.608719 C392.903534,213.442520 394.359283,213.967438 395.352417,214.956772 C418.607788,238.123917 442.032623,261.127930 464.911133,284.662720 C473.146820,293.134644 473.626221,298.604889 464.359192,307.978546 C427.923187,344.833984 391.148804,381.354919 354.250000,418.250000 z" style="fill: rgba(0, 0, 0, 0);"/>
  <path opacity="1.000000" stroke="none" d=" M366.979919,243.917526 C362.981842,258.554688 358.905060,272.742584 355.049561,286.990356 C349.472809,307.599091 344.094086,328.261322 338.559021,348.881439 C334.442505,364.216949 329.902649,379.446716 326.157074,394.870667 C324.154083,403.118744 313.943359,406.219940 307.959473,404.566101 C282.753021,397.599304 257.475006,390.891785 232.257126,383.965820 C208.740540,377.507050 185.270264,370.879791 161.771423,364.356201 C157.303284,363.115784 152.796936,362.012939 147.028366,360.514069 C163.398193,356.120117 178.516846,352.048615 193.642914,348.004913 C216.748535,341.828033 239.854080,335.650787 262.969635,329.511292 C278.797638,325.307373 294.705566,321.389618 310.459198,316.925415 C322.114410,313.622589 330.244446,306.265350 333.329681,294.164764 C335.292725,286.465515 333.726440,278.916077 331.776398,271.484497 C322.892944,237.629547 313.953705,203.789108 304.960663,169.963120 C298.608551,146.070724 292.138031,122.209816 285.720459,98.334831 C285.270782,96.661903 284.821960,94.988739 284.163483,92.536118 C290.758240,94.094109 297.022339,95.399612 303.190460,97.061325 C330.151031,104.324570 357.164856,111.410980 383.982178,119.173630 C393.250885,121.856590 398.051208,128.746323 395.080261,139.339233 C389.488098,159.278320 384.360504,179.347397 378.989258,199.348877 C375.034546,214.075455 370.999420,228.780426 366.979919,243.917526 z" style="fill: rgba(0, 0, 0, 0);"/>
</svg>