<?xml version="1.0" encoding="utf-8"?>
<svg viewBox="0 0 512 512" xmlns="http://www.w3.org/2000/svg">
  <path opacity="1.000000" stroke="none" d=" M272.000000,513.000000 C181.355331,513.000000 91.210663,513.000000 1.032996,513.000000 C1.032996,342.396973 1.032996,171.793930 1.032996,1.095450 C171.561356,1.095450 342.122772,1.095450 512.842102,1.095450 C512.842102,171.666550 512.842102,342.333252 512.842102,513.000000 C432.793915,513.000000 352.646942,513.000000 272.000000,513.000000 M16.586447,97.000000 C15.085094,97.000000 13.583680,96.991058 12.082401,97.001564 C5.920931,97.044670 4.004365,98.988960 4.004049,105.308136 C3.998459,216.785675 3.998209,328.263214 4.004529,439.740753 C4.004902,446.310730 5.774945,447.999786 12.513454,447.999786 C104.661560,448.000092 196.809662,448.000061 288.957764,448.000000 C296.549866,448.000000 297.999390,446.523590 297.999481,438.769836 C298.000305,350.454315 298.000000,262.138763 298.000000,173.823242 C298.000000,172.046280 298.000000,170.269318 298.000000,168.441162 C298.403839,168.531006 298.678223,168.522263 298.713379,168.609726 C309.577118,195.633255 320.384308,222.679596 331.284241,249.688522 C340.457214,272.418243 349.821075,295.071167 358.946289,317.819916 C367.411896,338.924255 375.627563,360.128723 384.038147,381.255341 C391.975098,401.192230 400.085114,421.060333 407.987579,441.010773 C410.735138,447.947296 415.174774,449.897247 422.135376,447.018158 C432.052917,442.916077 442.043610,438.991058 451.997650,434.977081 C469.080658,428.088440 486.187195,421.256989 503.227051,414.263123 C510.435730,411.304352 511.834473,408.111786 508.935089,400.854431 C500.376648,379.432281 491.655548,358.075012 482.967010,336.704987 C474.339142,315.484100 465.599030,294.308502 457.041626,273.059326 C443.640442,239.782303 430.396637,206.441910 417.000610,173.162796 C406.413147,146.860840 395.423096,120.716476 385.208649,94.271614 C382.229980,86.559982 378.671082,85.175964 370.864777,88.166069 C352.767456,95.098000 334.926544,102.698547 316.967896,109.993988 C310.834412,112.485626 304.659698,114.875710 298.000000,117.511612 C298.000000,102.278542 298.024658,87.960304 297.987823,73.642220 C297.973175,67.954033 295.973083,66.002487 290.369171,66.001793 C259.708679,65.998016 229.048187,65.995148 198.387695,66.003883 C191.836273,66.005745 190.006210,67.867157 190.003098,74.502747 C189.994278,93.332283 190.000000,112.161827 190.000000,130.991364 C190.000000,133.596512 190.000000,136.201675 190.000000,138.715759 C163.693039,138.715759 137.957779,138.715759 112.000000,138.715759 C112.000000,127.791077 112.007828,117.149216 111.997185,106.507378 C111.990349,99.671967 109.345299,97.005234 102.545609,97.003326 C74.217987,96.995407 45.890362,97.000000 16.586447,97.000000 z" style="fill: rgba(0, 0, 0, 0);"/>
  <path fill="#FFFFFF" opacity="1.000000" stroke="none" d=" M17.074593,97.000000 C45.890362,97.000000 74.217987,96.995407 102.545609,97.003326 C109.345299,97.005234 111.990349,99.671967 111.997185,106.507378 C112.007828,117.149216 112.000000,127.791077 112.000000,138.715759 C137.957779,138.715759 163.693039,138.715759 190.000000,138.715759 C190.000000,136.201675 190.000000,133.596512 190.000000,130.991364 C190.000000,112.161827 189.994278,93.332283 190.003098,74.502747 C190.006210,67.867157 191.836273,66.005745 198.387695,66.003883 C229.048187,65.995148 259.708679,65.998016 290.369171,66.001793 C295.973083,66.002487 297.973175,67.954033 297.987823,73.642220 C298.024658,87.960304 298.000000,102.278542 298.000000,117.511612 C304.659698,114.875710 310.834412,112.485626 316.967896,109.993988 C334.926544,102.698547 352.767456,95.098000 370.864777,88.166069 C378.671082,85.175964 382.229980,86.559982 385.208649,94.271614 C395.423096,120.716476 406.413147,146.860840 417.000610,173.162796 C430.396637,206.441910 443.640442,239.782303 457.041626,273.059326 C465.599030,294.308502 474.339142,315.484100 482.967010,336.704987 C491.655548,358.075012 500.376648,379.432281 508.935089,400.854431 C511.834473,408.111786 510.435730,411.304352 503.227051,414.263123 C486.187195,421.256989 469.080658,428.088440 451.997650,434.977081 C442.043610,438.991058 432.052917,442.916077 422.135376,447.018158 C415.174774,449.897247 410.735138,447.947296 407.987579,441.010773 C400.085114,421.060333 391.975098,401.192230 384.038147,381.255341 C375.627563,360.128723 367.411896,338.924255 358.946289,317.819916 C349.821075,295.071167 340.457214,272.418243 331.284241,249.688522 C320.384308,222.679596 309.577118,195.633255 298.713379,168.609726 C298.678223,168.522263 298.403839,168.531006 298.000000,168.441162 C298.000000,170.269318 298.000000,172.046280 298.000000,173.823242 C298.000000,262.138763 298.000305,350.454315 297.999481,438.769836 C297.999390,446.523590 296.549866,448.000000 288.957764,448.000000 C196.809662,448.000061 104.661560,448.000092 12.513454,447.999786 C5.774945,447.999786 4.004902,446.310730 4.004529,439.740753 C3.998209,328.263214 3.998459,216.785675 4.004049,105.308136 C4.004365,98.988960 5.920931,97.044670 12.082401,97.001564 C13.583680,96.991058 15.085094,97.000000 17.074593,97.000000 M454.299500,417.965515 C467.161957,412.667542 480.024445,407.369537 492.898560,402.066742 C466.101288,335.448364 439.466705,269.234406 412.693298,202.675262 C388.642761,212.374512 364.933807,221.935989 340.322906,231.861221 C367.038239,298.275757 393.762451,364.712372 420.532013,431.261749 C431.824280,426.719330 442.662140,422.359650 454.299500,417.965515 M97.000000,292.500000 C97.000000,267.738586 97.000000,242.977188 97.000000,218.288727 C70.688240,218.288727 44.950806,218.288727 19.286678,218.288727 C19.286678,290.312164 19.286678,362.046478 19.286678,433.711243 C45.311810,433.711243 71.049248,433.711243 97.000000,433.711243 C97.000000,386.781891 97.000000,340.140930 97.000000,292.500000 M283.000000,427.423279 C283.000000,346.671082 283.000000,265.918884 283.000000,185.315887 C256.635193,185.315887 230.896591,185.315887 205.316696,185.315887 C205.316696,268.368408 205.316696,351.104736 205.316696,433.679504 C231.372452,433.679504 257.110504,433.679504 283.000000,433.679504 C283.000000,431.706573 283.000000,430.053436 283.000000,427.423279 M112.000000,220.500000 C112.000000,291.591797 112.000000,362.683594 112.000000,433.713806 C138.306076,433.713806 164.043747,433.713806 189.716309,433.713806 C189.716309,340.026703 189.716309,246.626068 189.716309,153.286194 C163.693924,153.286194 137.956253,153.286194 112.000000,153.286194 C112.000000,175.547760 112.000000,197.523880 112.000000,220.500000 M96.999992,157.348297 C96.999992,142.265717 96.999992,127.183144 96.999992,112.343567 C70.578102,112.343567 44.839676,112.343567 19.346628,112.343567 C19.346628,128.761688 19.346628,144.834930 19.346628,160.999908 C44.351994,160.999908 69.010857,160.990250 93.669678,161.018509 C95.614594,161.020737 97.489044,161.199585 96.999992,157.348297 M339.398987,169.962585 C356.698303,162.964005 373.997589,155.965408 391.114594,149.040588 C384.805817,133.419769 378.828491,118.619713 372.839417,103.790497 C348.427368,113.627197 324.559998,123.244408 300.575378,132.908875 C306.791901,148.470261 312.668610,163.181030 318.650543,178.155151 C325.283997,175.456467 331.944061,172.746979 339.398987,169.962585 M283.000000,99.500427 C283.000000,93.068954 283.000000,86.637474 283.000000,80.286339 C256.688812,80.286339 230.953506,80.286339 205.287445,80.286339 C205.287445,95.978119 205.287445,111.381958 205.287445,126.713661 C231.311188,126.713661 257.046509,126.713661 283.000000,126.713661 C283.000000,117.786102 283.000000,109.143143 283.000000,99.500427 M92.380699,204.000000 C93.822823,204.000000 95.264946,204.000000 96.750465,204.000000 C96.750465,194.433380 96.750465,185.362579 96.750465,176.249969 C70.764175,176.249969 45.028202,176.249969 19.252983,176.249969 C19.252983,185.573349 19.252983,194.644897 19.252983,204.000000 C43.469975,204.000000 67.435120,204.000000 92.380699,204.000000 M205.000000,166.348221 C204.338943,169.624054 205.967270,170.080811 208.860153,170.063721 C229.190781,169.943527 249.522446,170.000000 269.853790,170.000000 C274.134399,170.000000 278.415009,170.000000 282.759705,170.000000 C282.759705,160.453278 282.759705,151.381973 282.759705,142.242004 C256.781982,142.242004 231.045212,142.242004 205.000000,142.242004 C205.000000,150.112457 205.000000,157.744904 205.000000,166.348221 M327.508820,200.007660 C330.005463,206.044373 332.502106,212.081070 334.866577,217.798157 C359.299316,207.947754 383.188232,198.316589 407.125549,188.665909 C403.570343,179.909683 400.144531,171.472122 396.702393,162.994370 C384.447296,168.022751 372.475098,173.008392 360.445099,177.850525 C348.375824,182.708481 336.248962,187.423309 324.301239,192.140106 C325.336212,194.877151 326.186279,197.125259 327.508820,200.007660 z"/>
  <path opacity="1.000000" stroke="none" d=" M453.899750,417.982758 C442.662140,422.359650 431.824280,426.719330 420.532013,431.261749 C393.762451,364.712372 367.038239,298.275757 340.322906,231.861221 C364.933807,221.935989 388.642761,212.374512 412.693298,202.675262 C439.466705,269.234406 466.101288,335.448364 492.898560,402.066742 C480.024445,407.369537 467.161957,412.667542 453.899750,417.982758 M418.681061,345.036591 C425.082794,342.557465 431.500946,340.119568 437.880585,337.584839 C442.178162,335.877350 444.789795,331.709595 443.777954,328.420471 C442.367859,323.836853 438.004913,321.280334 432.961243,323.150330 C424.130280,326.424500 415.389374,330.050201 406.979218,334.264069 C405.183258,335.163940 404.050995,339.299866 404.309021,341.767639 C404.506500,343.656708 407.168793,346.371490 409.108124,346.736786 C411.898529,347.262360 415.027893,345.988281 418.681061,345.036591 z" style="fill: rgba(0, 0, 0, 0);"/>
  <path opacity="1.000000" stroke="none" d=" M97.000000,293.000000 C97.000000,340.140930 97.000000,386.781891 97.000000,433.711243 C71.049248,433.711243 45.311810,433.711243 19.286678,433.711243 C19.286678,362.046478 19.286678,290.312164 19.286678,218.288727 C44.950806,218.288727 70.688240,218.288727 97.000000,218.288727 C97.000000,242.977188 97.000000,267.738586 97.000000,293.000000 M33.000088,347.257019 C33.429813,351.896606 36.538300,353.006836 40.527199,353.003479 C52.183327,352.993713 63.839725,353.035675 75.495270,352.952179 C76.861740,352.942413 78.396385,352.561829 79.554909,351.860565 C82.982735,349.785675 84.345512,345.994751 82.651199,342.947327 C81.344460,340.596954 77.663956,338.347870 74.936638,338.219086 C63.804871,337.693451 52.633801,337.991821 41.477222,338.003113 C34.847248,338.009827 33.145729,339.709991 33.000088,347.257019 z" style="fill: rgba(0, 0, 0, 0);"/>
  <path opacity="1.000000" stroke="none" d=" M283.000000,427.911774 C283.000000,430.053436 283.000000,431.706573 283.000000,433.679504 C257.110504,433.679504 231.372452,433.679504 205.316696,433.679504 C205.316696,351.104736 205.316696,268.368408 205.316696,185.315887 C230.896591,185.315887 256.635193,185.315887 283.000000,185.315887 C283.000000,265.918884 283.000000,346.671082 283.000000,427.911774 M259.548676,281.042816 C270.729858,272.778229 273.081146,258.716156 266.593323,247.435638 C259.254547,234.675613 246.334610,232.373032 233.964813,236.651840 C223.534332,240.259827 215.538788,254.108887 218.996155,266.785309 C223.822830,284.482361 244.450287,291.756744 259.548676,281.042816 M268.099762,340.347198 C270.458618,333.127960 267.860687,328.144440 261.356293,328.048615 C249.713409,327.877136 238.065170,327.911133 226.421310,328.045044 C221.865967,328.097443 218.894791,331.494019 219.000061,335.906891 C219.120224,340.943512 221.297791,342.975739 226.774673,342.990540 C238.253616,343.021637 249.734421,343.101074 261.210236,342.908813 C263.328918,342.873322 265.427765,341.652191 268.099762,340.347198 M230.636124,369.000000 C229.971283,369.000000 229.306442,368.999908 228.641602,369.000031 C222.017426,369.001190 218.984100,371.375671 219.000015,376.547485 C219.015167,381.476532 222.342194,383.996368 228.858826,383.998901 C239.330032,384.003021 249.801224,384.004456 260.272430,383.998413 C266.904297,383.994598 269.043182,382.118835 269.000000,376.374878 C268.958862,370.904053 266.794861,369.009796 260.520813,369.002808 C250.880676,368.992126 241.240494,369.000000 230.636124,369.000000 z" style="fill: rgba(0, 0, 0, 0);"/>
  <path opacity="1.000000" stroke="none" d=" M112.000000,220.000000 C112.000000,197.523880 112.000000,175.547760 112.000000,153.286194 C137.956253,153.286194 163.693924,153.286194 189.716309,153.286194 C189.716309,246.626068 189.716309,340.026703 189.716309,433.713806 C164.043747,433.713806 138.306076,433.713806 112.000000,433.713806 C112.000000,362.683594 112.000000,291.591797 112.000000,220.000000 M176.000000,241.500000 C176.000000,224.335236 176.008575,207.170486 175.994461,190.005722 C175.990524,185.221985 173.021820,182.069504 168.163528,182.030121 C156.665558,181.936874 145.165680,181.929672 133.667908,182.034866 C129.043823,182.077164 126.010948,185.235657 126.008659,189.674423 C125.992416,221.170944 125.991570,252.667450 126.008408,284.163971 C126.011169,289.343079 128.370636,291.899750 133.666916,291.959686 C145.164154,292.089783 156.664429,292.063141 168.162384,291.969910 C173.024155,291.930511 175.988998,288.781494 175.994446,283.995392 C176.010147,270.163605 176.000000,256.331787 176.000000,241.500000 M126.001633,340.790070 C126.016769,346.668610 128.517700,349.902649 133.604141,349.958954 C145.238480,350.087769 156.876144,350.084442 168.510529,349.957489 C173.107651,349.907318 176.086609,346.576477 175.999969,342.171631 C175.900085,337.093323 173.740601,335.027039 168.314194,335.010590 C156.844757,334.975830 145.374298,335.078979 133.906067,334.955994 C130.034973,334.914490 127.267860,336.107941 126.001633,340.790070 M143.527863,391.000000 C151.003601,391.000000 158.480316,391.066223 165.954376,390.954041 C167.849930,390.925568 169.805191,390.539154 171.613953,389.951050 C175.605270,388.653290 176.562698,385.489227 175.968887,381.739380 C175.389236,378.078979 173.261597,375.993774 169.376678,375.996826 C157.083267,376.006500 144.781357,375.767273 132.504257,376.214661 C130.285339,376.295502 126.983040,378.763702 126.267899,380.846344 C125.040222,384.421570 125.620811,388.803619 130.413574,389.882568 C134.340637,390.766602 138.489624,390.664795 143.527863,391.000000 z" style="fill: rgba(0, 0, 0, 0);"/>
  <path opacity="1.000000" stroke="none" d=" M96.999863,157.833786 C97.489044,161.199585 95.614594,161.020737 93.669678,161.018509 C69.010857,160.990250 44.351994,160.999908 19.346628,160.999908 C19.346628,144.834930 19.346628,128.761688 19.346628,112.343567 C44.839676,112.343567 70.578102,112.343567 96.999992,112.343567 C96.999992,127.183144 96.999992,142.265717 96.999863,157.833786 z" style="fill: rgba(0, 0, 0, 0);"/>
  <path opacity="1.000000" stroke="none" d=" M339.001556,170.000031 C331.944061,172.746979 325.283997,175.456467 318.650543,178.155151 C312.668610,163.181030 306.791901,148.470261 300.575378,132.908875 C324.559998,123.244408 348.427368,113.627197 372.839417,103.790497 C378.828491,118.619713 384.805817,133.419769 391.114594,149.040588 C373.997589,155.965408 356.698303,162.964005 339.001556,170.000031 z" style="fill: rgba(0, 0, 0, 0);"/>
  <path opacity="1.000000" stroke="none" d=" M283.000000,100.000305 C283.000000,109.143143 283.000000,117.786102 283.000000,126.713661 C257.046509,126.713661 231.311188,126.713661 205.287445,126.713661 C205.287445,111.381958 205.287445,95.978119 205.287445,80.286339 C230.953506,80.286339 256.688812,80.286339 283.000000,80.286339 C283.000000,86.637474 283.000000,93.068954 283.000000,100.000305 z" style="fill: rgba(0, 0, 0, 0);"/>
  <path opacity="1.000000" stroke="none" d=" M91.890480,204.000000 C67.435120,204.000000 43.469975,204.000000 19.252983,204.000000 C19.252983,194.644897 19.252983,185.573349 19.252983,176.249969 C45.028202,176.249969 70.764175,176.249969 96.750465,176.249969 C96.750465,185.362579 96.750465,194.433380 96.750465,204.000000 C95.264946,204.000000 93.822823,204.000000 91.890480,204.000000 z" style="fill: rgba(0, 0, 0, 0);"/>
  <path opacity="1.000000" stroke="none" d=" M205.000000,165.862793 C205.000000,157.744904 205.000000,150.112457 205.000000,142.242004 C231.045212,142.242004 256.781982,142.242004 282.759705,142.242004 C282.759705,151.381973 282.759705,160.453278 282.759705,170.000000 C278.415009,170.000000 274.134399,170.000000 269.853790,170.000000 C249.522446,170.000000 229.190781,169.943527 208.860153,170.063721 C205.967270,170.080811 204.338943,169.624054 205.000000,165.862793 z" style="fill: rgba(0, 0, 0, 0);"/>
  <path opacity="1.000000" stroke="none" d=" M327.272583,199.690506 C326.186279,197.125259 325.336212,194.877151 324.301239,192.140106 C336.248962,187.423309 348.375824,182.708481 360.445099,177.850525 C372.475098,173.008392 384.447296,168.022751 396.702393,162.994370 C400.144531,171.472122 403.570343,179.909683 407.125549,188.665909 C383.188232,198.316589 359.299316,207.947754 334.866577,217.798157 C332.502106,212.081070 330.005463,206.044373 327.272583,199.690506 z" style="fill: rgba(0, 0, 0, 0);"/>
  <path fill="#FFFFFF" opacity="1.000000" stroke="none" d=" M418.346832,345.259460 C415.027893,345.988281 411.898529,347.262360 409.108124,346.736786 C407.168793,346.371490 404.506500,343.656708 404.309021,341.767639 C404.050995,339.299866 405.183258,335.163940 406.979218,334.264069 C415.389374,330.050201 424.130280,326.424500 432.961243,323.150330 C438.004913,321.280334 442.367859,323.836853 443.777954,328.420471 C444.789795,331.709595 442.178162,335.877350 437.880585,337.584839 C431.500946,340.119568 425.082794,342.557465 418.346832,345.259460 z"/>
  <path fill="#FFFFFF" opacity="1.000000" stroke="none" d=" M33.000046,346.829285 C33.145729,339.709991 34.847248,338.009827 41.477222,338.003113 C52.633801,337.991821 63.804871,337.693451 74.936638,338.219086 C77.663956,338.347870 81.344460,340.596954 82.651199,342.947327 C84.345512,345.994751 82.982735,349.785675 79.554909,351.860565 C78.396385,352.561829 76.861740,352.942413 75.495270,352.952179 C63.839725,353.035675 52.183327,352.993713 40.527199,353.003479 C36.538300,353.006836 33.429813,351.896606 33.000046,346.829285 z"/>
  <path fill="#FFFFFF" opacity="1.000000" stroke="none" d=" M259.264069,281.290527 C244.450287,291.756744 223.822830,284.482361 218.996155,266.785309 C215.538788,254.108887 223.534332,240.259827 233.964813,236.651840 C246.334610,232.373032 259.254547,234.675613 266.593323,247.435638 C273.081146,258.716156 270.729858,272.778229 259.264069,281.290527 M242.743866,250.000076 C236.859192,251.069473 232.299835,256.439850 233.006104,261.470032 C233.842804,267.429291 239.263275,271.503662 245.683945,270.999481 C250.543503,270.617859 255.205093,265.212524 254.999191,260.198090 C254.758545,254.338425 250.045639,250.129425 242.743866,250.000076 z"/>
  <path fill="#FFFFFF" opacity="1.000000" stroke="none" d=" M267.817749,340.662720 C265.427765,341.652191 263.328918,342.873322 261.210236,342.908813 C249.734421,343.101074 238.253616,343.021637 226.774673,342.990540 C221.297791,342.975739 219.120224,340.943512 219.000061,335.906891 C218.894791,331.494019 221.865967,328.097443 226.421310,328.045044 C238.065170,327.911133 249.713409,327.877136 261.356293,328.048615 C267.860687,328.144440 270.458618,333.127960 267.817749,340.662720 z"/>
  <path fill="#FFFFFF" opacity="1.000000" stroke="none" d=" M231.118225,369.000000 C241.240494,369.000000 250.880676,368.992126 260.520813,369.002808 C266.794861,369.009796 268.958862,370.904053 269.000000,376.374878 C269.043182,382.118835 266.904297,383.994598 260.272430,383.998413 C249.801224,384.004456 239.330032,384.003021 228.858826,383.998901 C222.342194,383.996368 219.015167,381.476532 219.000015,376.547485 C218.984100,371.375671 222.017426,369.001190 228.641602,369.000031 C229.306442,368.999908 229.971283,369.000000 231.118225,369.000000 z"/>
  <path fill="#FFFFFF" opacity="1.000000" stroke="none" d=" M176.000000,242.000000 C176.000000,256.331787 176.010147,270.163605 175.994446,283.995392 C175.988998,288.781494 173.024155,291.930511 168.162384,291.969910 C156.664429,292.063141 145.164154,292.089783 133.666916,291.959686 C128.370636,291.899750 126.011169,289.343079 126.008408,284.163971 C125.991570,252.667450 125.992416,221.170944 126.008659,189.674423 C126.010948,185.235657 129.043823,182.077164 133.667908,182.034866 C145.165680,181.929672 156.665558,181.936874 168.163528,182.030121 C173.021820,182.069504 175.990524,185.221985 175.994461,190.005722 C176.008575,207.170486 176.000000,224.335236 176.000000,242.000000 M141.000000,245.500000 C141.000000,255.929733 141.000000,266.359467 141.000000,276.711182 C147.981308,276.711182 154.387161,276.711182 160.713928,276.711182 C160.713928,250.020477 160.713928,223.619537 160.713928,197.288757 C154.018799,197.288757 147.612946,197.288757 141.000000,197.288757 C141.000000,213.217728 141.000000,228.858856 141.000000,245.500000 z"/>
  <path fill="#FFFFFF" opacity="1.000000" stroke="none" d=" M126.011627,340.373962 C127.267860,336.107941 130.034973,334.914490 133.906067,334.955994 C145.374298,335.078979 156.844757,334.975830 168.314194,335.010590 C173.740601,335.027039 175.900085,337.093323 175.999969,342.171631 C176.086609,346.576477 173.107651,349.907318 168.510529,349.957489 C156.876144,350.084442 145.238480,350.087769 133.604141,349.958954 C128.517700,349.902649 126.016769,346.668610 126.011627,340.373962 z"/>
  <path fill="#FFFFFF" opacity="1.000000" stroke="none" d=" M143.034042,391.000000 C138.489624,390.664795 134.340637,390.766602 130.413574,389.882568 C125.620811,388.803619 125.040222,384.421570 126.267899,380.846344 C126.983040,378.763702 130.285339,376.295502 132.504257,376.214661 C144.781357,375.767273 157.083267,376.006500 169.376678,375.996826 C173.261597,375.993774 175.389236,378.078979 175.968887,381.739380 C176.562698,385.489227 175.605270,388.653290 171.613953,389.951050 C169.805191,390.539154 167.849930,390.925568 165.954376,390.954041 C158.480316,391.066223 151.003601,391.000000 143.034042,391.000000 z"/>
  <path opacity="1.000000" stroke="none" d=" M243.162018,250.000031 C250.045639,250.129425 254.758545,254.338425 254.999191,260.198090 C255.205093,265.212524 250.543503,270.617859 245.683945,270.999481 C239.263275,271.503662 233.842804,267.429291 233.006104,261.470032 C232.299835,256.439850 236.859192,251.069473 243.162018,250.000031 z" style="fill: rgba(0, 0, 0, 0);"/>
  <path opacity="1.000000" stroke="none" d=" M141.000000,245.000000 C141.000000,228.858856 141.000000,213.217728 141.000000,197.288757 C147.612946,197.288757 154.018799,197.288757 160.713928,197.288757 C160.713928,223.619537 160.713928,250.020477 160.713928,276.711182 C154.387161,276.711182 147.981308,276.711182 141.000000,276.711182 C141.000000,266.359467 141.000000,255.929733 141.000000,245.000000 z" style="fill: rgba(0, 0, 0, 0);"/>
</svg>