<?xml version="1.0" encoding="UTF-8"?>
<svg viewBox="0 0 20 20" version="1.1" xmlns="http://www.w3.org/2000/svg" xmlns:xlink="http://www.w3.org/1999/xlink">

    <defs>
        <linearGradient x1="51.6572229%" y1="0%" x2="50.6816398%" y2="100%" id="linearGradient-1">
            <stop stop-color="#62A13F" offset="0%"></stop>
            <stop stop-color="#306B13" offset="100%"></stop>
        </linearGradient>
    </defs>
    <g id="Element/Icon/Misc/Crystals" stroke="none" stroke-width="1" fill="none" fill-rule="evenodd">
        <path d="M7.74379172,5.28884615 L9.74617602,7.36271387 L10.4953588,20 L10.2455677,20 L5,7.70386721 L5,7.22619024 L7.25310928,5.28884615 L7.74379172,5.28884615 Z M15,6.01234552 L11.2102813,19.5097306 L10.7558365,19.5097306 L10.2645296,7.22830915 L12.2441634,6.49467843 L12.7437609,6.49467843 L13.2441145,6.97701134 L14.4932104,6.14428366 L15,6.01234552 Z M10.9951697,1.42108547e-14 L14.9919495,5.00509445 L14.9919495,5.28884615 L13.2433583,6.49467843 L12.7437609,6.01234552 L12.2441634,6.01234552 L10.4953588,6.49467843 L9.74617602,6.49467843 L7.74767939,4.80651323 L7.24818864,4.80651323 L5,6.49923258 L5,6.01234552 L10.4953588,1.42108547e-14 L10.9951697,1.42108547e-14 Z" id="Crystals-Icon" fill="url(#linearGradient-1)"></path>
    </g>
</svg>
