<?xml version="1.0" encoding="utf-8"?>
<svg viewBox="0 0 512 512" xmlns="http://www.w3.org/2000/svg">
  <path fill="#FFFFFF" opacity="1.000000" stroke="none" d=" M199.000000,513.000000 C166.645767,513.000000 134.291550,513.000000 101.765266,512.662231 C101.111572,511.896942 100.687805,511.197784 100.139984,511.081055 C72.597092,505.215210 56.175854,481.680939 56.060574,455.283630 C55.848377,406.694855 56.000000,358.104462 56.000000,309.514740 C56.000000,307.745575 56.000000,305.976440 56.000000,304.346649 C50.228870,303.843079 44.875404,303.999908 39.832165,302.825043 C20.661037,298.359070 7.988190,286.836060 2.929257,267.464844 C2.768821,266.850525 1.664368,266.482727 0.999999,266.000000 C1.000000,259.645599 1.000000,253.291214 1.336738,246.764923 C2.101724,246.111328 2.817555,245.681641 2.915459,245.140213 C4.618960,235.719513 9.470169,228.049789 16.110809,221.406906 C84.547295,152.947327 152.950348,84.454086 221.550690,16.159031 C226.400772,11.330551 232.762054,8.029547 238.356430,3.930635 C239.395538,3.169289 240.126709,1.987660 241.000000,1.000002 C252.020889,1.000000 263.041779,1.000000 274.241211,1.307656 C291.564667,9.765035 302.953461,24.642105 315.928711,37.556217 C376.724884,98.065842 437.353516,158.744370 497.846375,219.557144 C502.671509,224.407822 505.972534,230.765121 510.069611,236.357971 C510.830597,237.396774 512.012390,238.127243 513.000000,239.000000 C513.000000,250.020889 513.000000,261.041779 512.692383,272.241211 C511.359863,274.028839 510.116150,275.539948 509.345093,277.262604 C503.671356,289.938324 493.561279,297.634583 480.718262,301.506531 C474.144165,303.488464 467.025818,303.665314 460.000000,304.680115 C460.000000,306.476105 460.000000,308.296875 460.000000,310.117645 C460.000000,357.435425 460.068634,404.753448 459.911804,452.070709 C459.892517,457.891663 459.296509,463.864899 457.892914,469.499878 C452.304840,491.933929 438.216187,505.970459 415.471436,511.076538 C414.867462,511.212128 414.485504,512.336670 414.000000,513.000000 C381.979095,513.000000 349.958221,513.000000 317.760315,512.691284 C308.966248,508.246307 306.726349,501.315155 306.827881,492.031281 C307.241241,454.216064 307.115509,416.393158 306.942322,378.574219 C306.874359,363.738647 296.814545,351.538330 280.563690,351.923279 C265.410980,352.282227 250.235031,352.308746 235.084122,351.913330 C219.865067,351.516174 208.966553,363.841644 208.983765,378.325195 C209.030884,417.977539 208.968094,457.630066 209.033890,497.282349 C209.043915,503.328491 206.255173,507.395050 201.241104,510.359253 C200.301926,510.914490 199.737411,512.103455 199.000000,513.000000 M255.798035,31.000074 C250.921265,31.251797 247.443314,34.040264 244.180466,37.304043 C175.848328,105.655945 107.505554,173.997192 39.164066,242.339737 C38.575485,242.928329 37.952129,243.483795 37.385357,244.092300 C29.156317,252.927277 32.077709,270.269531 46.030430,271.908661 C54.515003,272.905426 63.141060,272.813538 71.707886,272.963470 C81.093948,273.127747 86.999146,278.861877 86.999367,288.186188 C87.000664,341.843842 86.976509,395.501556 87.043526,449.159119 C87.049034,453.565369 87.419846,458.007446 88.058113,462.368927 C89.331055,471.067352 99.331131,480.558838 107.566940,480.971954 C116.639046,481.427063 125.719856,481.853821 134.800690,481.956940 C149.079300,482.119110 163.361130,482.000000 178.000000,482.000000 C178.000000,479.947784 178.000000,478.321594 178.000000,476.695374 C178.000000,444.700745 178.237061,412.703583 177.893219,380.712646 C177.737137,366.191528 181.277832,352.954834 190.189407,341.717621 C200.082428,329.242859 213.422897,321.732483 229.490295,321.155853 C248.129822,320.486908 266.812164,320.937622 285.474945,321.057007 C288.872253,321.078705 292.382782,321.420868 295.640991,322.331146 C322.938629,329.957581 337.654114,351.679718 337.921021,378.216827 C338.251160,411.041321 338.000000,443.871704 338.000000,476.699524 C338.000000,478.444824 338.000000,480.190125 338.000000,481.999969 C359.379089,481.999969 380.040497,482.079132 400.700104,481.923187 C404.205322,481.896729 407.874023,481.351807 411.173767,480.203339 C423.947540,475.757416 428.891022,466.557648 428.929535,453.654663 C429.094757,398.331085 428.997864,343.006775 429.002289,287.682709 C429.002960,279.095490 435.146576,273.008759 443.796417,273.001251 C450.961884,272.995056 458.132538,273.168274 465.291199,272.947235 C471.111237,272.767517 476.362732,271.023560 480.015320,265.983368 C484.860443,259.297485 483.859772,249.224213 477.246735,242.630432 C408.569244,174.153046 340.019012,105.547997 271.470459,36.941402 C267.321381,32.788834 262.661285,30.366247 255.798035,31.000074 z"/>
  <path opacity="1.000000" stroke="none" d=" M240.531342,1.000002 C240.126709,1.987660 239.395538,3.169289 238.356430,3.930635 C232.762054,8.029547 226.400772,11.330551 221.550690,16.159031 C152.950348,84.454086 84.547295,152.947327 16.110809,221.406906 C9.470169,228.049789 4.618960,235.719513 2.915459,245.140213 C2.817555,245.681641 2.101724,246.111328 1.336738,246.296509 C1.000000,164.407043 1.000000,82.814087 1.000000,1.000000 C80.687424,1.000000 160.375061,1.000000 240.531342,1.000002 z" style="fill: rgba(0, 0, 0, 0);"/>
  <path opacity="1.000000" stroke="none" d=" M513.000000,238.531342 C512.012390,238.127243 510.830597,237.396774 510.069611,236.357971 C505.972534,230.765121 502.671509,224.407822 497.846375,219.557144 C437.353516,158.744370 376.724884,98.065842 315.928711,37.556217 C302.953461,24.642105 291.564667,9.765035 274.709900,1.307656 C354.260376,1.000000 433.520752,1.000000 513.000000,1.000000 C513.000000,80.020760 513.000000,159.041718 513.000000,238.531342 z" style="fill: rgba(0, 0, 0, 0);"/>
  <path opacity="1.000000" stroke="none" d=" M199.468658,513.000000 C199.737411,512.103455 200.301926,510.914490 201.241104,510.359253 C206.255173,507.395050 209.043915,503.328491 209.033890,497.282349 C208.968094,457.630066 209.030884,417.977539 208.983765,378.325195 C208.966553,363.841644 219.865067,351.516174 235.084122,351.913330 C250.235031,352.308746 265.410980,352.282227 280.563690,351.923279 C296.814545,351.538330 306.874359,363.738647 306.942322,378.574219 C307.115509,416.393158 307.241241,454.216064 306.827881,492.031281 C306.726349,501.315155 308.966248,508.246307 317.291656,512.691284 C277.979095,513.000000 238.958206,513.000000 199.468658,513.000000 z" style="fill: rgba(0, 0, 0, 0);"/>
  <path opacity="1.000000" stroke="none" d=" M0.999999,266.468658 C1.664368,266.482727 2.768821,266.850525 2.929257,267.464844 C7.988190,286.836060 20.661037,298.359070 39.832165,302.825043 C44.875404,303.999908 50.228870,303.843079 56.000000,304.346649 C56.000000,305.976440 56.000000,307.745575 56.000000,309.514740 C56.000000,358.104462 55.848377,406.694855 56.060574,455.283630 C56.175854,481.680939 72.597092,505.215210 100.139984,511.081055 C100.687805,511.197784 101.111572,511.896942 101.296608,512.662231 C67.708733,513.000000 34.417473,513.000000 1.000000,513.000000 C1.000000,430.979156 1.000000,348.958221 0.999999,266.468658 z" style="fill: rgba(0, 0, 0, 0);"/>
  <path opacity="1.000000" stroke="none" d=" M414.468658,513.000000 C414.485504,512.336670 414.867462,511.212128 415.471436,511.076538 C438.216187,505.970459 452.304840,491.933929 457.892914,469.499878 C459.296509,463.864899 459.892517,457.891663 459.911804,452.070709 C460.068634,404.753448 460.000000,357.435425 460.000000,310.117645 C460.000000,308.296875 460.000000,306.476105 460.000000,304.680115 C467.025818,303.665314 474.144165,303.488464 480.718262,301.506531 C493.561279,297.634583 503.671356,289.938324 509.345093,277.262604 C510.116150,275.539948 511.359863,274.028839 512.692383,272.709900 C513.000000,352.896637 513.000000,432.793304 513.000000,513.000000 C480.313080,513.000000 447.625214,513.000000 414.468658,513.000000 z" style="fill: rgba(0, 0, 0, 0);"/>
  <path opacity="1.000000" stroke="none" d=" M256.238953,31.000038 C262.661285,30.366247 267.321381,32.788834 271.470459,36.941402 C340.019012,105.547997 408.569244,174.153046 477.246735,242.630432 C483.859772,249.224213 484.860443,259.297485 480.015320,265.983368 C476.362732,271.023560 471.111237,272.767517 465.291199,272.947235 C458.132538,273.168274 450.961884,272.995056 443.796417,273.001251 C435.146576,273.008759 429.002960,279.095490 429.002289,287.682709 C428.997864,343.006775 429.094757,398.331085 428.929535,453.654663 C428.891022,466.557648 423.947540,475.757416 411.173767,480.203339 C407.874023,481.351807 404.205322,481.896729 400.700104,481.923187 C380.040497,482.079132 359.379089,481.999969 338.000000,481.999969 C338.000000,480.190125 338.000000,478.444824 338.000000,476.699524 C338.000000,443.871704 338.251160,411.041321 337.921021,378.216827 C337.654114,351.679718 322.938629,329.957581 295.640991,322.331146 C292.382782,321.420868 288.872253,321.078705 285.474945,321.057007 C266.812164,320.937622 248.129822,320.486908 229.490295,321.155853 C213.422897,321.732483 200.082428,329.242859 190.189407,341.717621 C181.277832,352.954834 177.737137,366.191528 177.893219,380.712646 C178.237061,412.703583 178.000000,444.700745 178.000000,476.695374 C178.000000,478.321594 178.000000,479.947784 178.000000,482.000000 C163.361130,482.000000 149.079300,482.119110 134.800690,481.956940 C125.719856,481.853821 116.639046,481.427063 107.566940,480.971954 C99.331131,480.558838 89.331055,471.067352 88.058113,462.368927 C87.419846,458.007446 87.049034,453.565369 87.043526,449.159119 C86.976509,395.501556 87.000664,341.843842 86.999367,288.186188 C86.999146,278.861877 81.093948,273.127747 71.707886,272.963470 C63.141060,272.813538 54.515003,272.905426 46.030430,271.908661 C32.077709,270.269531 29.156317,252.927277 37.385357,244.092300 C37.952129,243.483795 38.575485,242.928329 39.164066,242.339737 C107.505554,173.997192 175.848328,105.655945 244.180466,37.304043 C247.443314,34.040264 250.921265,31.251797 256.238953,31.000038 z" style="fill: rgba(0, 0, 0, 0);"/>
</svg>